<svg xmlns="http://www.w3.org/2000/svg" width="263.532" height="158.177" viewBox="0 0 263.532 158.177">
  <path id="Icon_awesome-handshake" data-name="Icon awesome-handshake" d="M179,4.5H143.625a13.171,13.171,0,0,0-8.894,3.459L94.254,45.018c-.041.041-.082.124-.124.165a16.38,16.38,0,0,0-.865,23.059c5.229,5.724,16.224,7.247,23.1,1.112.041-.041.124-.041.165-.082l32.9-30.141a6.587,6.587,0,0,1,8.894,9.718l-10.747,9.841,59.953,48.671a29.666,29.666,0,0,1,3.253,3.171V30.853L188.3,8.371A13.082,13.082,0,0,0,179,4.5ZM224,30.936v92.195a13.162,13.162,0,0,0,13.177,13.177h26.353V30.936Zm19.765,92.195a6.588,6.588,0,1,1,6.588-6.588A6.608,6.608,0,0,1,243.767,123.131ZM0,136.266H26.353A13.162,13.162,0,0,0,39.53,123.089V30.936H0Zm19.765-26.312a6.588,6.588,0,1,1-6.588,6.588A6.608,6.608,0,0,1,19.765,109.954Zm179.49,7.659L137.778,67.706,125.425,79.03A29.639,29.639,0,0,1,85.36,35.341L119.042,4.5H84.536A13.153,13.153,0,0,0,75.23,8.371L52.706,30.853v92.195h7.535l37.265,33.724a26.348,26.348,0,0,0,37.059-3.829l.082-.082,7.371,6.382a15.3,15.3,0,0,0,21.535-2.224l12.93-15.894,2.224,1.812A13.156,13.156,0,0,0,197.237,141l3.912-4.818a13.2,13.2,0,0,0-1.894-18.571Z" transform="translate(0 -4.5)" fill="#fff"/>
</svg>
